<svg width="171" height="83" viewBox="0 0 171 83" fill="none" xmlns="http://www.w3.org/2000/svg">
<path d="M150.766 65.9765C150.192 67.894 148.994 69.5646 147.363 70.7231C147.363 70.7231 146.687 67.355 147.398 64.8863C148.109 62.4175 150.32 58.8641 150.32 58.8641C150.32 58.8641 151.697 62.7965 150.766 65.9765Z" fill="#FF8634"/>
<path d="M160.315 70.4828C160.315 70.4828 157.237 74.2134 154.54 75.2884C151.849 76.3649 147.025 74.3712 147.025 74.3712C147.025 74.3712 149.243 71.4686 153.529 70.41C157.816 69.3514 160.315 70.4828 160.315 70.4828Z" fill="#FF8634"/>
<path d="M156.808 56.4778C156.607 59.6907 154.312 62.5191 154.312 62.5191C154.312 62.5191 153.252 58.6362 153.49 56.5766C153.727 54.5171 155.222 51.4552 155.222 51.4552C155.222 51.4552 157.01 53.2648 156.808 56.4778Z" fill="#FF8634"/>
<path d="M167.139 59.2376C167.139 59.2376 164.505 64.1201 161.723 65.4767H161.732C158.947 66.8319 155.075 64.9796 155.075 64.9796C155.075 64.9796 157.565 61.2161 162.007 59.9625C165.333 59.0234 167.139 59.2376 167.139 59.2376Z" fill="#FF8634"/>
<path d="M159.851 53.4378C159.851 53.4378 159.852 53.4365 159.853 53.4337C159.771 53.3028 157.767 50.0806 157.405 48.0995C157.036 46.077 157.533 42.691 157.533 42.691C157.533 42.691 159.684 43.8046 160.415 46.9049C161.132 49.943 159.902 53.3001 159.853 53.4337C159.854 53.4364 159.855 53.4378 159.855 53.4378H159.851Z" fill="#FF8634"/>
<path d="M170.914 45.8779C170.914 45.8779 169.886 51.2478 167.71 53.4035H167.714C165.538 55.5606 161.431 55.102 161.431 55.102C161.431 55.102 162.699 50.8991 166.384 48.212C169.12 46.2211 170.914 45.8779 170.914 45.8779Z" fill="#FF8634"/>
<path d="M162.595 43.3281C162.595 43.3281 162.595 43.327 162.595 43.3246C162.484 43.2218 159.941 40.8573 159.158 39.1719C158.358 37.4488 158.022 34.266 158.022 34.266C158.022 34.266 160.215 34.6848 161.59 37.2867C162.94 39.8407 162.608 43.2016 162.595 43.3246C162.598 43.327 162.599 43.3281 162.599 43.3281H162.595Z" fill="#FF8634"/>
<path d="M162.503 33.5438C162.503 33.5438 162.503 33.5431 162.503 33.5417C162.381 33.4854 159.87 32.3111 158.86 31.2165C157.825 30.0947 156.79 27.7372 156.79 27.7372C156.79 27.7372 158.561 27.5134 160.257 29.1624C161.927 30.7849 162.485 33.456 162.503 33.5417C162.506 33.5431 162.507 33.5438 162.507 33.5438H162.503Z" fill="#FF8634"/>
<path d="M170.712 34.3361C170.712 34.3361 170.712 39.1184 169.246 41.3702L169.25 41.3688C167.783 43.6151 164.301 44.0023 164.301 44.0023C164.301 44.0023 164.645 40.1289 167.321 37.1824C169.543 34.737 170.712 34.3361 170.712 34.3361Z" fill="#FF8634"/>
<path d="M161.08 26.1431C161.08 26.1431 161.079 26.1419 161.079 26.1396C160.952 26.0831 158.368 24.9204 157.339 23.8021C156.285 22.6556 155.24 20.2116 155.24 20.2116C155.24 20.2116 157.086 19.9287 158.808 21.6121C160.495 23.2611 161.057 26.0275 161.079 26.1396C161.082 26.141 161.084 26.1417 161.084 26.1417L161.08 26.1431Z" fill="#FF8634"/>
<path d="M164.655 17.2431C164.655 17.2431 166.029 20.8391 165.58 23.0098L165.584 23.0085C165.135 25.1792 162.639 26.6031 162.639 26.6031C162.639 26.6031 161.67 23.522 162.937 20.4889C163.981 17.9914 164.655 17.2431 164.655 17.2431Z" fill="#FF8634"/>
<path d="M168.668 25.0873C168.668 25.0873 169.109 29.0183 168.106 31.0559L168.11 31.0545C167.105 33.0921 164.26 33.8473 164.26 33.8473C164.26 33.8473 164.09 30.5341 166.128 27.858C167.808 25.6516 168.668 25.0873 168.668 25.0873Z" fill="#FF8634"/>
<path d="M158.808 18.4651C158.808 18.4651 158.808 18.4645 158.807 18.4634C158.685 18.4556 156.375 18.3021 155.281 17.7168C154.157 17.1154 152.704 15.4856 152.704 15.4856C152.704 15.4856 154.076 14.7125 155.861 15.5364C157.618 16.3466 158.77 18.3962 158.807 18.4634C158.81 18.4636 158.812 18.4637 158.812 18.4637L158.808 18.4651Z" fill="#FF8634"/>
<path d="M159.81 11.063C159.81 11.063 161.814 13.5166 162.014 15.3812L162.018 15.3798C162.223 17.2444 160.629 19.1214 160.629 19.1214C160.629 19.1214 159.021 16.9506 159.295 14.1633C159.512 11.9115 159.81 11.063 159.81 11.063Z" fill="#FF8634"/>
<path d="M155.838 12.9605C155.838 12.9605 155.838 12.9604 155.838 12.9601C155.701 12.9734 154.183 13.1125 153.409 12.8438C152.597 12.5624 151.487 11.6163 151.487 11.6163C151.795 11.4073 152.146 11.2705 152.513 11.2161C152.881 11.1616 153.257 11.191 153.612 11.3019C154.864 11.6594 155.818 12.9343 155.838 12.9601C155.844 12.9595 155.848 12.9592 155.848 12.9592L155.838 12.9605Z" fill="#FF8634"/>
<path d="M155.798 7.11824C155.798 7.11824 157.442 8.44872 157.818 9.66523H157.828C158.204 10.8804 157.381 12.3866 157.381 12.3866C156.54 11.5482 156.004 10.4525 155.857 9.27392C155.769 8.55889 155.749 7.83703 155.798 7.11824Z" fill="#FF8634"/>
<path d="M154.047 9.00068C154.047 9.00068 154.047 8.99975 154.047 8.99792C153.917 8.95878 152.442 8.50417 151.534 7.69629C150.583 6.85049 150.013 5.31543 150.013 5.31543C150.013 5.31543 151.788 5.09574 153.017 6.25459C154.217 7.3854 154.056 8.92411 154.047 8.99792C154.053 8.99976 154.056 9.00068 154.056 9.00068H154.047Z" fill="#FF8634"/>
<path fill-rule="evenodd" clip-rule="evenodd" d="M160.776 52.7721C163.92 44.31 164.119 35.0766 161.241 24.7494C159.576 18.7758 157.011 14.6054 154.382 10.3327C154.292 10.1867 154.203 10.0406 154.113 9.89425C153.99 9.69428 154.052 9.43253 154.252 9.30963C154.452 9.18673 154.714 9.24921 154.837 9.44918C154.93 9.60156 155.024 9.75385 155.118 9.90613C157.742 14.1715 160.362 18.4307 162.059 24.5212C164.978 34.9923 164.789 44.412 161.573 53.0682C158.358 61.7191 152.134 69.5694 143.044 76.9312C142.862 77.079 142.594 77.0509 142.447 76.8685C142.299 76.6861 142.327 76.4184 142.509 76.2707C151.519 68.9731 157.629 61.2396 160.776 52.7721Z" fill="#FF8634"/>
<path d="M20.4357 65.9765C21.0098 67.894 22.2079 69.5646 23.8396 70.7231C23.8396 70.7231 24.5149 67.355 23.8039 64.8863C23.0929 62.4175 20.8818 58.8641 20.8818 58.8641C20.8818 58.8641 19.5051 62.7965 20.4357 65.9765Z" fill="#FF8634"/>
<path d="M10.887 70.4828C10.887 70.4828 13.9656 74.2134 16.6626 75.2884C19.3528 76.3649 24.1772 74.3712 24.1772 74.3712C24.1772 74.3712 21.9592 71.4686 17.6728 70.41C13.3864 69.3514 10.887 70.4828 10.887 70.4828Z" fill="#FF8634"/>
<path d="M14.3938 56.4778C14.5956 59.6907 16.8905 62.5191 16.8905 62.5191C16.8905 62.5191 17.9501 58.6362 17.7126 56.5766C17.4752 54.5171 15.9805 51.4552 15.9805 51.4552C15.9805 51.4552 14.1921 53.2648 14.3938 56.4778Z" fill="#FF8634"/>
<path d="M4.06279 59.2376C4.06279 59.2376 6.69669 64.1201 9.47881 65.4767H9.47058C12.2554 66.8319 16.1274 64.9796 16.1274 64.9796C16.1274 64.9796 13.6376 61.2161 9.19469 59.9625C5.86905 59.0234 4.06279 59.2376 4.06279 59.2376Z" fill="#FF8634"/>
<path d="M11.3509 53.4378C11.3509 53.4378 11.3504 53.4365 11.3494 53.4337C11.4312 53.3028 13.4351 50.0806 13.7968 48.0995C14.166 46.077 13.6691 42.691 13.6691 42.691C13.6691 42.691 11.5184 43.8046 10.7868 46.9049C10.07 49.943 11.2997 53.3001 11.3494 53.4337C11.3477 53.4364 11.3468 53.4378 11.3468 53.4378H11.3509Z" fill="#FF8634"/>
<path d="M0.288339 45.8779C0.288339 45.8779 1.31637 51.2478 3.49183 53.4035H3.48771C5.66454 55.5606 9.77116 55.102 9.77116 55.102C9.77116 55.102 8.50293 50.8991 4.81769 48.212C2.08223 46.2211 0.288339 45.8779 0.288339 45.8779Z" fill="#FF8634"/>
<path d="M8.60725 43.3281C8.60725 43.3281 8.60713 43.327 8.60689 43.3246C8.71798 43.2218 11.2614 40.8573 12.0441 39.1719C12.8443 37.4488 13.1805 34.266 13.1805 34.266C13.1805 34.266 10.9872 34.6848 9.61195 37.2867C8.26202 39.8407 8.59419 43.2016 8.60689 43.3246C8.6044 43.327 8.60313 43.3281 8.60313 43.3281H8.60725Z" fill="#FF8634"/>
<path d="M8.69921 33.5438C8.69921 33.5438 8.69935 33.5431 8.69964 33.5417C8.8209 33.4854 11.3321 32.3111 12.3419 31.2165C13.3768 30.0947 14.4117 27.7372 14.4117 27.7372C14.4117 27.7372 12.6411 27.5134 10.9447 29.1624C9.27556 30.7849 8.7172 33.456 8.69964 33.5417C8.69662 33.5431 8.69509 33.5438 8.69509 33.5438H8.69921Z" fill="#FF8634"/>
<path d="M0.490102 34.3361C0.490102 34.3361 0.4901 39.1184 1.95596 41.3702L1.95185 41.3688C3.41908 43.6151 6.9012 44.0023 6.9012 44.0023C6.9012 44.0023 6.5567 40.1289 3.88163 37.1824C1.65951 34.737 0.490102 34.3361 0.490102 34.3361Z" fill="#FF8634"/>
<path d="M10.1225 26.1431C10.1225 26.1431 10.1228 26.1419 10.1232 26.1396C10.2497 26.0831 12.8345 24.9204 13.8627 23.8021C14.9168 22.6556 15.9626 20.2116 15.9626 20.2116C15.9626 20.2116 14.1166 19.9287 12.3941 21.6121C10.7067 23.2611 10.1454 26.0275 10.1232 26.1396C10.12 26.141 10.1184 26.1417 10.1184 26.1417L10.1225 26.1431Z" fill="#FF8634"/>
<path d="M6.54709 17.2431C6.54709 17.2431 5.17318 20.8391 5.622 23.0098L5.61788 23.0085C6.06669 25.1792 8.56333 26.6031 8.56333 26.6031C8.56333 26.6031 9.53233 23.522 8.26549 20.4889C7.22099 17.9914 6.54709 17.2431 6.54709 17.2431Z" fill="#FF8634"/>
<path d="M2.53381 25.0873C2.53381 25.0873 2.09322 29.0183 3.09654 31.0559L3.09243 31.0545C4.09712 33.0921 6.94237 33.8473 6.94237 33.8473C6.94237 33.8473 7.11256 30.5341 5.07435 27.858C3.39437 25.6516 2.53381 25.0873 2.53381 25.0873Z" fill="#FF8634"/>
<path d="M12.3941 18.4651C12.3941 18.4651 12.3944 18.4645 12.395 18.4634C12.5173 18.4556 14.8273 18.3021 15.9215 17.7168C17.0456 17.1154 18.4977 15.4856 18.4977 15.4856C18.4977 15.4856 17.1266 14.7125 15.3409 15.5364C13.5846 16.3466 12.4324 18.3962 12.395 18.4634C12.3917 18.4636 12.3899 18.4637 12.3899 18.4637L12.3941 18.4651Z" fill="#FF8634"/>
<path d="M11.3921 11.063C11.3921 11.063 9.38822 13.5166 9.18783 15.3812L9.18371 15.3798C8.9792 17.2444 10.5727 19.1214 10.5727 19.1214C10.5727 19.1214 12.1813 16.9506 11.9068 14.1633C11.69 11.9115 11.3921 11.063 11.3921 11.063Z" fill="#FF8634"/>
<path d="M15.3642 12.9605C15.3642 12.9605 15.3643 12.9604 15.3645 12.9601C15.5013 12.9734 17.0194 13.1125 17.7936 12.8438C18.6048 12.5624 19.7151 11.6163 19.7151 11.6163C19.4075 11.4073 19.0566 11.2705 18.6887 11.2161C18.3209 11.1616 17.9454 11.191 17.5905 11.3019C16.3378 11.6594 15.3837 12.9343 15.3645 12.9601C15.358 12.9595 15.3546 12.9592 15.3546 12.9592L15.3642 12.9605Z" fill="#FF8634"/>
<path d="M15.404 7.11824C15.404 7.11824 13.7597 8.44872 13.3837 9.66523H13.3741C12.998 10.8804 13.8215 12.3866 13.8215 12.3866C14.6623 11.5482 15.1986 10.4525 15.345 9.27392C15.4334 8.55889 15.4532 7.83703 15.404 7.11824Z" fill="#FF8634"/>
<path d="M17.1554 9.00068C17.1554 9.00068 17.1553 8.99975 17.155 8.99792C17.2854 8.95878 18.76 8.50417 19.6685 7.69629C20.6196 6.85049 21.1892 5.31543 21.1892 5.31543C21.1892 5.31543 19.4146 5.09574 18.1848 6.25459C16.9847 7.3854 17.1465 8.92411 17.155 8.99792C17.1489 8.99976 17.1458 9.00068 17.1458 9.00068H17.1554Z" fill="#FF8634"/>
<path fill-rule="evenodd" clip-rule="evenodd" d="M10.4263 52.7721C7.28197 44.31 7.08346 35.0766 9.96151 24.7494C11.6263 18.7758 14.1916 14.6054 16.8199 10.3327C16.9097 10.1867 16.9996 10.0406 17.0896 9.89425C17.2125 9.69428 17.15 9.43253 16.95 9.30963C16.75 9.18673 16.4883 9.24921 16.3654 9.44918C16.2717 9.60156 16.1781 9.75385 16.0844 9.90613C13.4603 14.1715 10.8401 18.4307 9.14271 24.5212C6.22456 34.9923 6.41308 44.412 9.62955 53.0682C12.844 61.7191 19.0685 69.5694 28.1577 76.9312C28.3401 77.079 28.6077 77.0509 28.7554 76.8685C28.9032 76.6861 28.8751 76.4184 28.6927 76.2707C19.6828 68.9731 13.5727 61.2396 10.4263 52.7721Z" fill="#FF8634"/>
<path d="M124.63 35.1991C124.56 35.2858 124.474 35.3985 124.37 35.5371C124.266 35.6671 124.183 35.7798 124.123 35.8751C123.923 36.2131 123.659 36.6031 123.33 37.0451C123 37.4785 122.636 37.9118 122.238 38.3451C121.839 38.7698 121.427 39.1338 121.003 39.4371L119.651 38.3581C119.911 38.2021 120.166 38.0201 120.418 37.8121C120.669 37.6041 120.899 37.3875 121.107 37.1621C121.323 36.9281 121.51 36.7071 121.666 36.4991C121.83 36.2911 121.956 36.1048 122.043 35.9401C121.93 35.9401 121.739 35.9401 121.471 35.9401C121.202 35.9401 120.881 35.9401 120.509 35.9401C120.136 35.9401 119.733 35.9401 119.3 35.9401C118.875 35.9401 118.45 35.9401 118.026 35.9401C117.601 35.9401 117.198 35.9401 116.817 35.9401C116.444 35.9401 116.119 35.9401 115.842 35.9401C115.573 35.9401 115.382 35.9401 115.27 35.9401C115.001 35.9401 114.745 35.9488 114.503 35.9661C114.26 35.9835 113.987 36.0051 113.684 36.0311V34.2241C113.935 34.2588 114.195 34.2891 114.464 34.3151C114.732 34.3411 115.001 34.3541 115.27 34.3541C115.382 34.3541 115.582 34.3541 115.868 34.3541C116.154 34.3541 116.492 34.3541 116.882 34.3541C117.28 34.3541 117.701 34.3541 118.143 34.3541C118.593 34.3541 119.04 34.3541 119.482 34.3541C119.932 34.3541 120.348 34.3541 120.73 34.3541C121.12 34.3541 121.449 34.3541 121.718 34.3541C121.995 34.3541 122.181 34.3541 122.277 34.3541C122.398 34.3541 122.545 34.3498 122.719 34.3411C122.892 34.3325 123.061 34.3195 123.226 34.3021C123.399 34.2848 123.525 34.2631 123.603 34.2371L124.63 35.1991ZM119.326 36.9541C119.326 37.5955 119.313 38.2151 119.287 38.8131C119.261 39.4111 119.187 39.9875 119.066 40.5421C118.953 41.0881 118.767 41.6081 118.507 42.1021C118.255 42.5961 117.904 43.0641 117.454 43.5061C117.003 43.9481 116.427 44.3555 115.725 44.7281L114.204 43.4931C114.412 43.4238 114.633 43.3328 114.867 43.2201C115.101 43.0988 115.335 42.9515 115.569 42.7781C115.985 42.4921 116.318 42.1888 116.57 41.8681C116.83 41.5475 117.029 41.2008 117.168 40.8281C117.306 40.4468 117.402 40.0351 117.454 39.5931C117.506 39.1425 117.532 38.6528 117.532 38.1241C117.532 37.9248 117.527 37.7341 117.519 37.5521C117.51 37.3615 117.484 37.1621 117.441 36.9541H119.326Z" fill="#333333"/>
<path d="M102.816 36.9541C102.963 36.9801 103.136 36.9974 103.336 37.0061C103.535 37.0148 103.704 37.0191 103.843 37.0191H109.797C109.953 37.0191 110.122 37.0148 110.304 37.0061C110.486 36.9974 110.655 36.9801 110.811 36.9541V38.5921C110.646 38.5748 110.473 38.5618 110.291 38.5531C110.109 38.5444 109.944 38.5401 109.797 38.5401H103.843C103.704 38.5401 103.535 38.5444 103.336 38.5531C103.136 38.5618 102.963 38.5748 102.816 38.5921V36.9541ZM105.871 43.6101V37.8511H107.574V43.6101H105.871ZM102.153 42.6481C102.317 42.6654 102.495 42.6828 102.686 42.7001C102.876 42.7174 103.054 42.7261 103.219 42.7261H110.408C110.59 42.7261 110.763 42.7174 110.928 42.7001C111.101 42.6741 111.257 42.6568 111.396 42.6481V44.3511C111.257 44.3251 111.084 44.3078 110.876 44.2991C110.676 44.2904 110.52 44.2861 110.408 44.2861H103.219C103.063 44.2861 102.889 44.2904 102.699 44.2991C102.508 44.3078 102.326 44.3251 102.153 44.3511V42.6481Z" fill="#333333"/>
<path d="M92.3118 33.7041C92.5198 33.8254 92.7582 33.9684 93.0268 34.1331C93.2955 34.2978 93.5685 34.4668 93.8458 34.6401C94.1318 34.8134 94.3962 34.9824 94.6388 35.1471C94.8902 35.3031 95.1025 35.4418 95.2758 35.5631L94.3008 37.0061C94.1275 36.8761 93.9152 36.7288 93.6638 36.5641C93.4125 36.3994 93.1525 36.2304 92.8838 36.0571C92.6152 35.8838 92.3465 35.7191 92.0778 35.5631C91.8178 35.3984 91.5795 35.2554 91.3628 35.1341L92.3118 33.7041ZM89.8938 42.9341C90.3878 42.8474 90.8818 42.7434 91.3758 42.6221C91.8785 42.4921 92.3768 42.3318 92.8708 42.1411C93.3735 41.9504 93.8588 41.7294 94.3268 41.4781C95.0635 41.0621 95.7482 40.5941 96.3808 40.0741C97.0222 39.5541 97.5942 38.9994 98.0968 38.4101C98.6082 37.8208 99.0372 37.2184 99.3838 36.6031L100.385 38.3711C99.7782 39.2724 99.0285 40.1218 98.1358 40.9191C97.2518 41.7164 96.2768 42.4228 95.2108 43.0381C94.7688 43.2894 94.2835 43.5234 93.7548 43.7401C93.2348 43.9568 92.7192 44.1431 92.2078 44.2991C91.7052 44.4638 91.2588 44.5808 90.8688 44.6501L89.8938 42.9341ZM90.3098 36.6681C90.5265 36.7894 90.7692 36.9324 91.0378 37.0971C91.3152 37.2531 91.5925 37.4178 91.8698 37.5911C92.1472 37.7644 92.4072 37.9291 92.6498 38.0851C92.9012 38.2411 93.1092 38.3798 93.2738 38.5011L92.3248 39.9571C92.1342 39.8271 91.9175 39.6841 91.6748 39.5281C91.4322 39.3634 91.1722 39.1944 90.8948 39.0211C90.6262 38.8391 90.3575 38.6701 90.0888 38.5141C89.8288 38.3581 89.5862 38.2238 89.3608 38.1111L90.3098 36.6681Z" fill="#333333"/>
<path d="M84.4339 32.937H85.9679V36.616H84.4339V32.937ZM81.7299 33.964H88.7369V35.238H81.7299V33.964ZM82.1849 36.005H88.3599V37.266H82.1849V36.005ZM81.6779 37.851H88.8669V40.438H87.5019V39.06H82.9779V40.438H81.6779V37.851ZM85.5909 39.71H86.9819V43.311C86.9819 43.493 86.9949 43.61 87.0209 43.662C87.0469 43.7053 87.1032 43.727 87.1899 43.727C87.2159 43.727 87.2592 43.727 87.3199 43.727C87.3806 43.727 87.4369 43.727 87.4889 43.727C87.5496 43.727 87.5972 43.727 87.6319 43.727C87.6926 43.727 87.7402 43.6923 87.7749 43.623C87.8096 43.545 87.8356 43.3933 87.8529 43.168C87.8789 42.934 87.8962 42.583 87.9049 42.115C88.0436 42.2277 88.2386 42.336 88.4899 42.44C88.7412 42.544 88.9622 42.622 89.1529 42.674C89.1096 43.2893 89.0359 43.7703 88.9319 44.117C88.8366 44.4637 88.6936 44.702 88.5029 44.832C88.3209 44.9707 88.0782 45.04 87.7749 45.04C87.7229 45.04 87.6579 45.04 87.5799 45.04C87.5106 45.04 87.4369 45.04 87.3589 45.04C87.2809 45.04 87.2029 45.04 87.1249 45.04C87.0556 45.04 86.9949 45.04 86.9429 45.04C86.5789 45.04 86.2972 44.9837 86.0979 44.871C85.8986 44.767 85.7642 44.5893 85.6949 44.338C85.6256 44.0867 85.5909 43.7443 85.5909 43.311V39.71ZM83.2379 39.723H84.6419V40.776C84.6419 41.1053 84.6072 41.465 84.5379 41.855C84.4772 42.2363 84.3516 42.6263 84.1609 43.025C83.9789 43.4237 83.7016 43.805 83.3289 44.169C82.9649 44.5417 82.4752 44.8797 81.8599 45.183C81.7472 45.0183 81.5869 44.8363 81.3789 44.637C81.1709 44.4463 80.9802 44.2817 80.8069 44.143C81.3356 43.883 81.7646 43.6057 82.0939 43.311C82.4232 43.0163 82.6702 42.7173 82.8349 42.414C82.9996 42.1107 83.1079 41.816 83.1599 41.53C83.2119 41.244 83.2379 40.9753 83.2379 40.724V39.723ZM78.6619 32.963L80.0139 33.444C79.8406 33.782 79.6586 34.1287 79.4679 34.484C79.2772 34.8307 79.0909 35.1687 78.9089 35.498C78.7269 35.8187 78.5536 36.1003 78.3889 36.343L77.3489 35.914C77.5049 35.6453 77.6652 35.342 77.8299 35.004C77.9946 34.666 78.1506 34.315 78.2979 33.951C78.4539 33.587 78.5752 33.2577 78.6619 32.963ZM80.1309 34.51L81.4049 35.082C81.0842 35.5673 80.7376 36.0787 80.3649 36.616C79.9922 37.1533 79.6196 37.669 79.2469 38.163C78.8742 38.657 78.5189 39.0903 78.1809 39.463L77.2839 38.969C77.5266 38.6743 77.7779 38.345 78.0379 37.981C78.3066 37.6083 78.5666 37.2227 78.8179 36.824C79.0779 36.4167 79.3206 36.0137 79.5459 35.615C79.7712 35.2163 79.9662 34.848 80.1309 34.51ZM76.6599 36.005L77.4269 34.952C77.6436 35.16 77.8689 35.3853 78.1029 35.628C78.3369 35.8707 78.5536 36.1133 78.7529 36.356C78.9522 36.5987 79.0996 36.824 79.1949 37.032L78.3629 38.215C78.2676 38.007 78.1246 37.773 77.9339 37.513C77.7519 37.253 77.5482 36.993 77.3229 36.733C77.0976 36.4643 76.8766 36.2217 76.6599 36.005ZM79.6889 37.617L80.7809 37.175C80.9542 37.461 81.1189 37.773 81.2749 38.111C81.4309 38.449 81.5696 38.7783 81.6909 39.099C81.8122 39.411 81.8989 39.6927 81.9509 39.944L80.7679 40.464C80.7332 40.2127 80.6596 39.9223 80.5469 39.593C80.4342 39.2637 80.3042 38.93 80.1569 38.592C80.0096 38.2453 79.8536 37.9203 79.6889 37.617ZM76.6209 38.657C77.2016 38.631 77.8862 38.5963 78.6749 38.553C79.4636 38.501 80.2652 38.449 81.0799 38.397L81.1059 39.671C80.3432 39.7317 79.5806 39.7923 78.8179 39.853C78.0639 39.905 77.3836 39.957 76.7769 40.009L76.6209 38.657ZM80.0529 40.88L81.1319 40.555C81.2879 40.9103 81.4266 41.3047 81.5479 41.738C81.6779 42.1713 81.7602 42.5397 81.7949 42.843L80.6379 43.22C80.6119 42.908 80.5426 42.5353 80.4299 42.102C80.3259 41.66 80.2002 41.2527 80.0529 40.88ZM77.1799 40.594L78.4279 40.815C78.3586 41.439 78.2546 42.0543 78.1159 42.661C77.9859 43.259 77.8299 43.766 77.6479 44.182C77.5612 44.1213 77.4486 44.0563 77.3099 43.987C77.1712 43.9177 77.0282 43.8527 76.8809 43.792C76.7336 43.7227 76.6079 43.6707 76.5039 43.636C76.6946 43.246 76.8419 42.778 76.9459 42.232C77.0499 41.686 77.1279 41.14 77.1799 40.594ZM78.5969 39.359H79.9489V45.17H78.5969V39.359Z" fill="#333333"/>
<path d="M67.8329 38.0202V42.8172H66.3379V39.4632H64.8689V38.0202H67.8329ZM67.8329 42.1932C68.0842 42.6265 68.4396 42.9472 68.8989 43.1552C69.3582 43.3545 69.9172 43.4672 70.5759 43.4932C70.9659 43.5105 71.4339 43.5235 71.9799 43.5322C72.5346 43.5322 73.1109 43.5279 73.7089 43.5192C74.3156 43.5105 74.9049 43.4975 75.4769 43.4802C76.0576 43.4542 76.5776 43.4195 77.0369 43.3762C76.9762 43.4889 76.9112 43.6405 76.8419 43.8312C76.7812 44.0132 76.7206 44.1995 76.6599 44.3902C76.6079 44.5809 76.5689 44.7499 76.5429 44.8972C76.1442 44.9232 75.6849 44.9405 75.1649 44.9492C74.6449 44.9579 74.1076 44.9622 73.5529 44.9622C72.9982 44.9709 72.4609 44.9709 71.9409 44.9622C71.4209 44.9622 70.9616 44.9535 70.5629 44.9362C69.7829 44.9015 69.1199 44.7759 68.5739 44.5592C68.0279 44.3425 67.5599 43.9829 67.1699 43.4802C66.9186 43.7402 66.6499 43.9959 66.3639 44.2472C66.0866 44.5072 65.7832 44.7759 65.4539 45.0532L64.7129 43.5062C64.9902 43.3242 65.2806 43.1205 65.5839 42.8952C65.8959 42.6699 66.1949 42.4359 66.4809 42.1932H67.8329ZM64.9209 34.1722L66.1039 33.2882C66.3552 33.4789 66.6152 33.6955 66.8839 33.9382C67.1526 34.1809 67.3996 34.4235 67.6249 34.6662C67.8502 34.9089 68.0322 35.1385 68.1709 35.3552L66.8839 36.3432C66.7626 36.1265 66.5936 35.8925 66.3769 35.6412C66.1689 35.3812 65.9349 35.1255 65.6749 34.8742C65.4149 34.6142 65.1636 34.3802 64.9209 34.1722ZM68.3919 33.8862H76.5819V35.1472H68.3919V33.8862ZM68.2359 40.6982H76.7509V41.9722H68.2359V40.6982ZM71.6549 32.9502H73.1759V43.1942H71.6549V32.9502ZM70.3289 38.4102V39.0602H74.5279V38.4102H70.3289ZM70.3289 36.7592V37.3962H74.5279V36.7592H70.3289ZM68.9119 35.6932H76.0229V40.1392H68.9119V35.6932Z" fill="#333333"/>
<path d="M55.639 32.8984L57.238 33.3144C57.004 33.9558 56.7267 34.5841 56.406 35.1994C56.094 35.8148 55.7517 36.3868 55.379 36.9154C55.015 37.4354 54.638 37.8904 54.248 38.2804C54.144 38.1938 54.0097 38.0854 53.845 37.9554C53.6803 37.8168 53.5113 37.6868 53.338 37.5654C53.1733 37.4441 53.026 37.3444 52.896 37.2664C53.2947 36.9284 53.6673 36.5298 54.014 36.0704C54.3607 35.6024 54.6727 35.0998 54.95 34.5624C55.2273 34.0164 55.457 33.4618 55.639 32.8984ZM55.925 34.3804H64.193V35.8884H55.171L55.925 34.3804ZM55.002 37.4614H63.881V38.9174H56.562V41.6474H55.002V37.4614ZM52.935 40.8804H64.895V42.3754H52.935V40.8804ZM58.824 35.1604H60.436V45.1704H58.824V35.1604Z" fill="#333333"/>
<path d="M46.3457 44.0002V42.8952C47.221 42.1152 47.9664 41.3916 48.5817 40.7242C49.2057 40.0569 49.6824 39.4372 50.0117 38.8652C50.341 38.2846 50.5057 37.7472 50.5057 37.2532C50.5057 36.9412 50.4494 36.6682 50.3367 36.4342C50.224 36.2002 50.0594 36.0226 49.8427 35.9012C49.6347 35.7712 49.3747 35.7062 49.0627 35.7062C48.716 35.7062 48.3954 35.8059 48.1007 36.0052C47.8147 36.1959 47.5504 36.4256 47.3077 36.6942L46.2417 35.6672C46.6924 35.1819 47.1517 34.8179 47.6197 34.5752C48.0964 34.3239 48.6597 34.1982 49.3097 34.1982C49.9164 34.1982 50.445 34.3239 50.8957 34.5752C51.355 34.8179 51.7104 35.1602 51.9617 35.6022C52.213 36.0442 52.3387 36.5642 52.3387 37.1622C52.3387 37.7429 52.1914 38.3366 51.8967 38.9432C51.6107 39.5412 51.225 40.1392 50.7397 40.7372C50.2544 41.3352 49.717 41.9246 49.1277 42.5052C49.379 42.4706 49.6477 42.4446 49.9337 42.4272C50.2284 42.4012 50.4884 42.3882 50.7137 42.3882H52.7937V44.0002H46.3457Z" fill="#333333"/>
<path d="M140.608 19.4202H143.858V20.5252H140.608V19.4202ZM146.614 19.4202H149.89V20.5252H146.614V19.4202ZM149.266 17.4702H150.852V27.2722C150.852 27.7229 150.795 28.0695 150.683 28.3122C150.57 28.5635 150.375 28.7499 150.098 28.8712C149.812 29.0012 149.448 29.0792 149.006 29.1052C148.564 29.1399 148.026 29.1572 147.394 29.1572C147.376 29.0099 147.337 28.8365 147.277 28.6372C147.216 28.4465 147.147 28.2515 147.069 28.0522C146.999 27.8615 146.921 27.6969 146.835 27.5582C147.112 27.5755 147.394 27.5885 147.68 27.5972C147.966 27.5972 148.217 27.5972 148.434 27.5972C148.659 27.5972 148.815 27.5972 148.902 27.5972C149.04 27.5972 149.136 27.5712 149.188 27.5192C149.24 27.4672 149.266 27.3805 149.266 27.2592V17.4702ZM140.725 17.4702H144.82V22.5272H140.725V21.2662H143.364V18.7312H140.725V17.4702ZM150.111 17.4702V18.7312H147.199V21.3052H150.111V22.5532H145.717V17.4702H150.111ZM139.841 17.4702H141.388V29.1702H139.841V17.4702Z" fill="#333333"/>
<path d="M134.407 17.7042H138.203V19.1602H135.928V29.1702H134.407V17.7042ZM127.569 18.2112H133.848V19.5632H127.569V18.2112ZM127.283 21.8382H134.017V23.2552H127.283V21.8382ZM129.948 17.0542H131.469V19.0562H129.948V17.0542ZM128.31 19.9142L129.597 19.6542C129.727 19.9402 129.839 20.2609 129.935 20.6162C130.03 20.9715 130.095 21.2835 130.13 21.5522L128.765 21.8642C128.756 21.6042 128.708 21.2922 128.622 20.9282C128.535 20.5555 128.431 20.2175 128.31 19.9142ZM131.807 19.6022L133.263 19.9142C133.124 20.2695 132.985 20.6249 132.847 20.9802C132.717 21.3269 132.595 21.6259 132.483 21.8772L131.261 21.5652C131.33 21.3832 131.399 21.1795 131.469 20.9542C131.538 20.7202 131.599 20.4862 131.651 20.2522C131.711 20.0095 131.763 19.7929 131.807 19.6022ZM128.57 27.1812H132.587V28.5332H128.57V27.1812ZM128.037 24.1132H133.432V29.1312H131.911V25.4652H129.48V29.1832H128.037V24.1132ZM137.8 17.7042H138.099L138.333 17.6392L139.477 18.3542C139.243 18.9869 138.987 19.6542 138.71 20.3562C138.441 21.0495 138.181 21.6735 137.93 22.2282C138.294 22.6182 138.567 22.9952 138.749 23.3592C138.939 23.7145 139.065 24.0525 139.126 24.3732C139.195 24.6939 139.23 24.9972 139.23 25.2832C139.23 25.7685 139.173 26.1715 139.061 26.4922C138.948 26.8129 138.766 27.0599 138.515 27.2332C138.272 27.4065 137.973 27.5149 137.618 27.5582C137.47 27.5755 137.306 27.5885 137.124 27.5972C136.95 27.5972 136.773 27.5972 136.591 27.5972C136.582 27.3805 136.543 27.1249 136.474 26.8302C136.413 26.5355 136.322 26.2799 136.201 26.0632C136.348 26.0805 136.482 26.0935 136.604 26.1022C136.725 26.1022 136.838 26.0979 136.942 26.0892C137.028 26.0805 137.111 26.0675 137.189 26.0502C137.275 26.0329 137.349 26.0025 137.41 25.9592C137.522 25.8899 137.6 25.7859 137.644 25.6472C137.696 25.4999 137.722 25.3135 137.722 25.0882C137.722 24.7242 137.631 24.3169 137.449 23.8662C137.275 23.4069 136.924 22.9259 136.396 22.4232C136.526 22.1112 136.656 21.7645 136.786 21.3832C136.924 20.9932 137.054 20.6032 137.176 20.2132C137.306 19.8145 137.423 19.4419 137.527 19.0952C137.639 18.7485 137.73 18.4625 137.8 18.2372V17.7042Z" fill="#333333"/>
<path d="M115.635 21.5652H127.14V23.0082H115.635V21.5652ZM117.806 18.6402H126.347V20.0702H117.806V18.6402ZM117.949 27.1292H124.995V28.5722H117.949V27.1292ZM120.887 16.9502H122.538V22.4492H120.887V16.9502ZM117.13 23.9442H125.879V29.1702H124.215V25.3742H118.729V29.2092H117.13V23.9442ZM117.754 16.9892L119.314 17.3662C119.141 17.9035 118.924 18.4279 118.664 18.9392C118.413 19.4505 118.14 19.9272 117.845 20.3692C117.559 20.8112 117.269 21.2012 116.974 21.5392C116.87 21.4525 116.727 21.3572 116.545 21.2532C116.372 21.1492 116.194 21.0495 116.012 20.9542C115.83 20.8502 115.674 20.7679 115.544 20.7072C116.021 20.2739 116.45 19.7235 116.831 19.0562C117.221 18.3802 117.529 17.6912 117.754 16.9892Z" fill="#333333"/>
<path d="M105.729 26.9992C106.422 26.9732 107.224 26.9429 108.134 26.9082C109.053 26.8649 110.023 26.8215 111.046 26.7782C112.077 26.7262 113.096 26.6742 114.101 26.6222L114.075 28.0392C113.104 28.1085 112.125 28.1779 111.137 28.2472C110.149 28.3252 109.204 28.3902 108.303 28.4422C107.402 28.5029 106.591 28.5592 105.872 28.6112L105.729 26.9992ZM108.979 20.7202L110.76 21.0842C110.613 21.6735 110.448 22.2715 110.266 22.8782C110.093 23.4849 109.911 24.0829 109.72 24.6722C109.529 25.2529 109.334 25.8075 109.135 26.3362C108.944 26.8649 108.758 27.3415 108.576 27.7662L107.094 27.3892C107.276 26.9472 107.454 26.4532 107.627 25.9072C107.809 25.3612 107.987 24.7935 108.16 24.2042C108.333 23.6062 108.489 23.0125 108.628 22.4232C108.767 21.8252 108.884 21.2575 108.979 20.7202ZM111.371 24.2562L112.84 23.6322C113.204 24.1262 113.572 24.6635 113.945 25.2442C114.318 25.8162 114.656 26.3839 114.959 26.9472C115.262 27.5019 115.492 28.0089 115.648 28.4682L114.036 29.1962C113.906 28.7542 113.698 28.2515 113.412 27.6882C113.135 27.1162 112.818 26.5312 112.463 25.9332C112.108 25.3265 111.744 24.7675 111.371 24.2562ZM105.157 18.6142H115.362V20.1092H105.157V18.6142ZM104.403 18.6142H105.976V21.9032C105.976 22.4232 105.954 22.9995 105.911 23.6322C105.876 24.2562 105.811 24.9019 105.716 25.5692C105.621 26.2279 105.478 26.8649 105.287 27.4802C105.096 28.0955 104.845 28.6502 104.533 29.1442C104.438 29.0575 104.308 28.9535 104.143 28.8322C103.978 28.7195 103.809 28.6069 103.636 28.4942C103.463 28.3902 103.315 28.3165 103.194 28.2732C103.471 27.8139 103.692 27.3112 103.857 26.7652C104.022 26.2192 104.143 25.6602 104.221 25.0882C104.299 24.5162 104.347 23.9572 104.364 23.4112C104.39 22.8652 104.403 22.3625 104.403 21.9032V18.6142ZM109.018 16.9502H110.643V19.3422H109.018V16.9502Z" fill="#333333"/>
<path d="M95.0426 26.7523C95.0426 26.5876 95.0426 26.319 95.0426 25.9463C95.0426 25.565 95.0426 25.1273 95.0426 24.6333C95.0426 24.1306 95.0426 23.6063 95.0426 23.0603C95.0426 22.5143 95.0426 21.99 95.0426 21.4873C95.0426 20.976 95.0426 20.5253 95.0426 20.1353C95.0426 19.7453 95.0426 19.4593 95.0426 19.2773C95.0426 19.052 95.0296 18.792 95.0036 18.4973C94.9863 18.2026 94.9559 17.9426 94.9126 17.7173H96.9406C96.9146 17.9426 96.8886 18.194 96.8626 18.4713C96.8366 18.74 96.8236 19.0086 96.8236 19.2773C96.8236 19.52 96.8236 19.8493 96.8236 20.2653C96.8236 20.6813 96.8236 21.145 96.8236 21.6563C96.8236 22.159 96.8236 22.6746 96.8236 23.2033C96.8236 23.7233 96.8236 24.226 96.8236 24.7113C96.8236 25.1966 96.8236 25.6213 96.8236 25.9853C96.8236 26.3406 96.8236 26.5963 96.8236 26.7523C96.8236 26.8736 96.8279 27.047 96.8366 27.2723C96.8453 27.489 96.8626 27.7143 96.8886 27.9483C96.9146 28.1823 96.9319 28.3903 96.9406 28.5723H94.9126C94.9473 28.3123 94.9776 28.009 95.0036 27.6623C95.0296 27.3156 95.0426 27.0123 95.0426 26.7523ZM96.4336 21.0843C96.8669 21.197 97.3523 21.3443 97.8896 21.5263C98.4269 21.6996 98.9686 21.886 99.5146 22.0853C100.061 22.2846 100.572 22.484 101.049 22.6833C101.534 22.874 101.937 23.0516 102.258 23.2163L101.517 25.0103C101.153 24.8196 100.75 24.629 100.308 24.4383C99.8656 24.239 99.4149 24.0483 98.9556 23.8663C98.5049 23.6843 98.0586 23.5153 97.6166 23.3593C97.1833 23.2033 96.7889 23.0646 96.4336 22.9433V21.0843Z" fill="#333333"/>
<path d="M90.5579 19.3424C90.4973 19.4638 90.4409 19.6111 90.3889 19.7844C90.3456 19.9491 90.3066 20.1051 90.2719 20.2524C90.2026 20.5644 90.1116 20.9198 89.9989 21.3184C89.8863 21.7171 89.7519 22.1288 89.5959 22.5534C89.4399 22.9781 89.2536 23.3984 89.0369 23.8144C88.8289 24.2304 88.5906 24.6204 88.3219 24.9844C87.9319 25.4958 87.4769 25.9811 86.9569 26.4404C86.4369 26.8911 85.8563 27.2984 85.2149 27.6624C84.5736 28.0178 83.8672 28.3211 83.0959 28.5724L81.6789 27.0254C82.5369 26.8174 83.2779 26.5618 83.9019 26.2584C84.5346 25.9464 85.0849 25.5998 85.5529 25.2184C86.0209 24.8284 86.4283 24.4124 86.7749 23.9704C87.0609 23.6064 87.3036 23.2121 87.5029 22.7874C87.7109 22.3628 87.8799 21.9338 88.0099 21.5004C88.1486 21.0671 88.2439 20.6684 88.2959 20.3044C88.1659 20.3044 87.9493 20.3044 87.6459 20.3044C87.3513 20.3044 87.0003 20.3044 86.5929 20.3044C86.1943 20.3044 85.7739 20.3044 85.3319 20.3044C84.8986 20.3044 84.4783 20.3044 84.0709 20.3044C83.6636 20.3044 83.2953 20.3044 82.9659 20.3044C82.6453 20.3044 82.4026 20.3044 82.2379 20.3044C81.9433 20.3044 81.6529 20.3088 81.3669 20.3174C81.0896 20.3261 80.8643 20.3391 80.6909 20.3564V18.5234C80.8296 18.5321 80.9899 18.5451 81.1719 18.5624C81.3539 18.5798 81.5446 18.5971 81.7439 18.6144C81.9433 18.6231 82.1123 18.6274 82.2509 18.6274C82.3809 18.6274 82.5759 18.6274 82.8359 18.6274C83.0959 18.6274 83.3949 18.6274 83.7329 18.6274C84.0709 18.6274 84.4219 18.6274 84.7859 18.6274C85.1586 18.6274 85.5269 18.6274 85.8909 18.6274C86.2549 18.6274 86.5973 18.6274 86.9179 18.6274C87.2386 18.6274 87.5159 18.6274 87.7499 18.6274C87.9926 18.6274 88.1616 18.6274 88.2569 18.6274C88.3869 18.6274 88.5473 18.6231 88.7379 18.6144C88.9286 18.5971 89.1063 18.5668 89.2709 18.5234L90.5579 19.3424Z" fill="#333333"/>
<path d="M70.2129 27.2464C71.2615 26.8044 72.1455 26.2758 72.8649 25.6604C73.5929 25.0451 74.1909 24.3951 74.6589 23.7104C75.1442 23.0171 75.4952 22.3238 75.7119 21.6304C75.9285 20.9371 76.0889 20.3218 76.1929 19.7844C76.2622 19.4898 76.3099 19.1951 76.3359 18.9004C76.3619 18.6058 76.3705 18.3761 76.3619 18.2114L78.4679 18.4974C78.3899 18.7488 78.3162 19.0218 78.2469 19.3164C78.1775 19.6024 78.1212 19.8364 78.0779 20.0184C77.9132 20.7811 77.6879 21.5524 77.4019 22.3324C77.1245 23.1038 76.7475 23.8534 76.2709 24.5814C75.7682 25.3701 75.1485 26.1068 74.4119 26.7914C73.6752 27.4761 72.7912 28.0698 71.7599 28.5724L70.2129 27.2464ZM69.9399 18.2764C70.1045 18.5018 70.2909 18.7834 70.4989 19.1214C70.7069 19.4594 70.9149 19.8148 71.1229 20.1874C71.3395 20.5514 71.5389 20.9024 71.7209 21.2404C71.9115 21.5784 72.0675 21.8601 72.1889 22.0854L70.4729 23.0604C70.3169 22.7051 70.1392 22.3454 69.9399 21.9814C69.7492 21.6088 69.5542 21.2448 69.3549 20.8894C69.1555 20.5254 68.9605 20.1961 68.7699 19.9014C68.5879 19.5981 68.4232 19.3424 68.2759 19.1344L69.9399 18.2764Z" fill="#333333"/>
<path d="M57.4468 21.851H60.4498V23.268H57.4468V21.851ZM59.8518 21.851H61.3598C61.3598 21.851 61.3598 21.8857 61.3598 21.955C61.3598 22.0243 61.3598 22.1067 61.3598 22.202C61.3598 22.2887 61.3598 22.3623 61.3598 22.423C61.3424 23.3417 61.3208 24.0957 61.2948 24.685C61.2688 25.2657 61.2254 25.7207 61.1648 26.05C61.1128 26.3707 61.0391 26.596 60.9438 26.726C60.8138 26.8907 60.6751 27.0077 60.5278 27.077C60.3891 27.1463 60.2244 27.1983 60.0338 27.233C59.8604 27.2677 59.6394 27.2893 59.3708 27.298C59.1108 27.298 58.8248 27.2937 58.5128 27.285C58.5041 27.0597 58.4608 26.8083 58.3828 26.531C58.3048 26.2537 58.2094 26.0197 58.0968 25.829C58.3308 25.8463 58.5474 25.8593 58.7468 25.868C58.9548 25.8767 59.1108 25.881 59.2148 25.881C59.3014 25.881 59.3751 25.8723 59.4358 25.855C59.5051 25.829 59.5614 25.7857 59.6048 25.725C59.6654 25.647 59.7088 25.4867 59.7348 25.244C59.7694 24.9927 59.7954 24.6157 59.8128 24.113C59.8301 23.6017 59.8431 22.9257 59.8518 22.085V21.851ZM63.7518 17.769L64.7008 16.833C64.9434 16.9543 65.1991 17.0973 65.4678 17.262C65.7364 17.4267 65.9921 17.5913 66.2348 17.756C66.4861 17.9207 66.6898 18.081 66.8458 18.237L65.8448 19.277C65.6974 19.1297 65.5068 18.965 65.2728 18.783C65.0388 18.601 64.7874 18.4233 64.5188 18.25C64.2501 18.068 63.9944 17.9077 63.7518 17.769ZM65.2858 21.123L66.8718 21.5C66.3258 23.19 65.5804 24.685 64.6358 25.985C63.6911 27.2763 62.5731 28.3207 61.2818 29.118C61.2124 29.0053 61.1084 28.8667 60.9698 28.702C60.8311 28.546 60.6881 28.3857 60.5408 28.221C60.3934 28.065 60.2634 27.935 60.1508 27.831C61.3988 27.155 62.4561 26.245 63.3228 25.101C64.1894 23.9483 64.8438 22.6223 65.2858 21.123ZM57.5248 18.9H67.5608V20.434H57.5248V18.9ZM56.4848 18.9H58.1228V22.735C58.1228 23.2203 58.1054 23.7533 58.0708 24.334C58.0361 24.906 57.9711 25.4953 57.8758 26.102C57.7804 26.7 57.6374 27.2763 57.4468 27.831C57.2648 28.3857 57.0264 28.884 56.7318 29.326C56.6451 29.2133 56.5151 29.0877 56.3418 28.949C56.1771 28.8103 56.0081 28.6717 55.8348 28.533C55.6701 28.403 55.5271 28.312 55.4058 28.26C55.7351 27.74 55.9734 27.1593 56.1208 26.518C56.2768 25.868 56.3764 25.2137 56.4198 24.555C56.4631 23.8963 56.4848 23.2853 56.4848 22.722V18.9ZM61.7628 16.963H63.4008C63.3834 18.029 63.4138 19.0733 63.4918 20.096C63.5698 21.1187 63.6824 22.0763 63.8298 22.969C63.9858 23.853 64.1678 24.6373 64.3758 25.322C64.5838 25.998 64.8134 26.5267 65.0648 26.908C65.3161 27.2893 65.5718 27.48 65.8318 27.48C65.9791 27.48 66.0918 27.3023 66.1698 26.947C66.2564 26.5917 66.3171 26.0067 66.3518 25.192C66.5338 25.3653 66.7461 25.5343 66.9888 25.699C67.2401 25.8637 67.4698 25.985 67.6778 26.063C67.5998 26.869 67.4828 27.493 67.3268 27.935C67.1708 28.3683 66.9628 28.6673 66.7028 28.832C66.4428 28.9967 66.1091 29.079 65.7018 29.079C65.2338 29.079 64.8091 28.9187 64.4278 28.598C64.0551 28.2773 63.7214 27.831 63.4268 27.259C63.1408 26.687 62.8938 26.0153 62.6858 25.244C62.4778 24.4727 62.3044 23.6363 62.1658 22.735C62.0358 21.8337 61.9361 20.8977 61.8668 19.927C61.8061 18.9477 61.7714 17.9597 61.7628 16.963Z" fill="#333333"/>
<path d="M45.8247 19.3162H54.8727V20.8372H45.8247V19.3162ZM45.2787 23.1382H54.3657V24.6462H45.2787V23.1382ZM43.7837 27.2722H55.5357V28.7932H43.7837V27.2722ZM48.8277 16.9502H50.4657V28.0132H48.8277V16.9502ZM45.8247 17.1192L47.4367 17.4832C47.2547 18.1505 47.0294 18.8092 46.7607 19.4592C46.4921 20.1092 46.2017 20.7159 45.8897 21.2792C45.5777 21.8339 45.2527 22.3192 44.9147 22.7352C44.8107 22.6399 44.6721 22.5359 44.4987 22.4232C44.3341 22.3019 44.1607 22.1849 43.9787 22.0722C43.7967 21.9595 43.6407 21.8685 43.5107 21.7992C43.8574 21.4352 44.1737 21.0019 44.4597 20.4992C44.7544 19.9965 45.0144 19.4549 45.2397 18.8742C45.4737 18.2935 45.6687 17.7085 45.8247 17.1192Z" fill="#333333"/>
<path d="M33.085 26.921H42.211V28.403H33.085V26.921ZM31.811 17.73H43.524V19.186H31.811V17.73ZM32.214 20.044H33.735V29.17H32.214V20.044ZM41.613 20.044H43.121V29.144H41.613V20.044ZM36.829 18.159H38.402V20.824H36.829V18.159ZM36.946 20.824H38.285V25.673H36.946V20.824ZM35.828 23.788V24.893H39.416V23.788H35.828ZM35.828 21.513V22.605H39.416V21.513H35.828ZM34.554 20.239H40.755V26.167H34.554V20.239Z" fill="#333333"/>
<path d="M19.9548 25.3613H26.0258V26.4663H19.9548V25.3613ZM19.6688 19.1733H26.1688V20.3043H19.6688V19.1733ZM22.2428 18.2633H23.6598V27.5843H22.2428V18.2633ZM19.5908 27.4283C20.1368 27.3937 20.7608 27.3503 21.4628 27.2983C22.1648 27.2463 22.9058 27.19 23.6858 27.1293C24.4745 27.06 25.2588 26.9907 26.0388 26.9213L26.0518 28.1043C25.3152 28.1823 24.5698 28.2603 23.8158 28.3383C23.0705 28.4163 22.3512 28.4857 21.6578 28.5463C20.9732 28.6157 20.3448 28.6807 19.7728 28.7413L19.5908 27.4283ZM21.2418 23.2943V23.8793H24.6738V23.2943H21.2418ZM21.2418 21.7863V22.3713H24.6738V21.7863H21.2418ZM20.0068 20.8113H25.9608V24.8543H20.0068V20.8113ZM25.3368 17.0283L26.0128 18.1853C25.4668 18.298 24.8515 18.3977 24.1668 18.4843C23.4908 18.5623 22.7975 18.6273 22.0868 18.6793C21.3762 18.7227 20.6958 18.753 20.0458 18.7703C20.0198 18.6057 19.9722 18.4193 19.9028 18.2113C19.8422 17.9947 19.7728 17.8083 19.6948 17.6523C20.1802 17.6263 20.6785 17.596 21.1898 17.5613C21.7012 17.518 22.2038 17.4703 22.6978 17.4183C23.2005 17.3663 23.6728 17.31 24.1148 17.2493C24.5655 17.18 24.9728 17.1063 25.3368 17.0283ZM26.1558 19.9013H30.6668V21.3313H26.1558V19.9013ZM30.0298 19.9013H31.5248C31.5248 19.9013 31.5248 19.9447 31.5248 20.0313C31.5248 20.118 31.5248 20.2177 31.5248 20.3303C31.5248 20.4343 31.5248 20.521 31.5248 20.5903C31.4902 21.925 31.4555 23.0603 31.4208 23.9963C31.3862 24.9237 31.3472 25.6907 31.3038 26.2973C31.2692 26.8953 31.2128 27.3633 31.1348 27.7013C31.0655 28.0393 30.9788 28.282 30.8748 28.4293C30.7275 28.646 30.5715 28.7977 30.4068 28.8843C30.2508 28.9797 30.0645 29.049 29.8478 29.0923C29.6485 29.127 29.4058 29.1443 29.1198 29.1443C28.8338 29.153 28.5348 29.153 28.2228 29.1443C28.2142 28.9277 28.1665 28.6763 28.0798 28.3903C28.0018 28.1043 27.9022 27.8573 27.7808 27.6493C28.0582 27.6753 28.3138 27.6927 28.5478 27.7013C28.7818 27.71 28.9595 27.7143 29.0808 27.7143C29.1848 27.7143 29.2715 27.697 29.3408 27.6623C29.4102 27.6277 29.4752 27.5713 29.5358 27.4933C29.6052 27.3893 29.6658 27.19 29.7178 26.8953C29.7698 26.592 29.8132 26.163 29.8478 25.6083C29.8912 25.045 29.9258 24.3213 29.9518 23.4373C29.9865 22.5533 30.0125 21.483 30.0298 20.2263V19.9013ZM27.4038 17.1713H28.8988C28.8988 18.2807 28.8858 19.3337 28.8598 20.3303C28.8425 21.327 28.7862 22.2673 28.6908 23.1513C28.6042 24.0267 28.4525 24.8413 28.2358 25.5953C28.0278 26.3407 27.7332 27.021 27.3518 27.6363C26.9705 28.2517 26.4808 28.7933 25.8828 29.2613C25.8048 29.1313 25.7008 28.9927 25.5708 28.8453C25.4495 28.698 25.3195 28.555 25.1808 28.4163C25.0508 28.2863 24.9208 28.178 24.7908 28.0913C25.3368 27.6753 25.7788 27.1987 26.1168 26.6613C26.4548 26.1153 26.7148 25.513 26.8968 24.8543C27.0788 24.187 27.2045 23.459 27.2738 22.6703C27.3432 21.873 27.3822 21.0193 27.3908 20.1093C27.3995 19.1907 27.4038 18.2113 27.4038 17.1713Z" fill="#333333"/>
<path d="M107.055 1.66504C107.037 1.80371 107.024 1.95104 107.016 2.10704C107.007 2.25437 106.998 2.40171 106.99 2.54904C106.981 2.67037 106.977 2.85671 106.977 3.10804C106.985 3.35071 106.99 3.62804 106.99 3.94004C106.99 4.24337 106.99 4.55537 106.99 4.87604C106.99 5.18804 106.99 5.47837 106.99 5.74704C106.998 6.01571 107.003 6.22371 107.003 6.37104C107.003 7.14237 106.972 7.84437 106.912 8.47704C106.86 9.10104 106.738 9.67737 106.548 10.206C106.366 10.7347 106.084 11.2244 105.703 11.675C105.33 12.1257 104.819 12.559 104.169 12.975L102.674 11.792C102.916 11.688 103.185 11.5407 103.48 11.35C103.774 11.1507 104.008 10.9514 104.182 10.752C104.433 10.492 104.637 10.219 104.793 9.93304C104.949 9.64704 105.07 9.33071 105.157 8.98404C105.252 8.63737 105.313 8.25171 105.339 7.82704C105.373 7.40237 105.391 6.91271 105.391 6.35804C105.391 6.12404 105.391 5.82937 105.391 5.47404C105.391 5.11871 105.386 4.75037 105.378 4.36904C105.369 3.98771 105.36 3.63671 105.352 3.31604C105.343 2.98671 105.33 2.73537 105.313 2.56204C105.304 2.39737 105.282 2.23271 105.248 2.06804C105.222 1.90337 105.196 1.76904 105.17 1.66504H107.055ZM101.933 4.20004C102.141 4.22604 102.353 4.25204 102.57 4.27804C102.786 4.29537 103.003 4.31271 103.22 4.33004C103.445 4.33871 103.67 4.34304 103.896 4.34304C104.459 4.34304 105.048 4.33004 105.664 4.30404C106.279 4.27804 106.873 4.23904 107.445 4.18704C108.017 4.12637 108.515 4.05704 108.94 3.97904L108.927 5.66904C108.519 5.71237 108.038 5.75571 107.484 5.79904C106.929 5.83371 106.344 5.86404 105.729 5.89004C105.122 5.90737 104.524 5.91604 103.935 5.91604C103.753 5.91604 103.545 5.91171 103.311 5.90304C103.077 5.89437 102.843 5.88571 102.609 5.87704C102.375 5.86837 102.149 5.85971 101.933 5.85104V4.20004ZM100.594 1.88604C100.542 2.04204 100.485 2.22404 100.425 2.43204C100.364 2.63137 100.316 2.80037 100.282 2.93904C100.204 3.29437 100.121 3.72337 100.035 4.22604C99.9479 4.72004 99.8743 5.23571 99.8136 5.77304C99.7529 6.31037 99.7226 6.83904 99.7226 7.35904C99.7226 7.87037 99.7659 8.32537 99.8526 8.72404C99.9393 8.52471 100.039 8.28637 100.152 8.00904C100.264 7.72304 100.373 7.45871 100.477 7.21604L101.283 7.73604C101.161 8.10871 101.04 8.49437 100.919 8.89304C100.806 9.28304 100.706 9.65571 100.62 10.011C100.533 10.3577 100.459 10.6567 100.399 10.908C100.373 11.0034 100.351 11.116 100.334 11.246C100.325 11.3674 100.321 11.467 100.321 11.545C100.321 11.6057 100.321 11.688 100.321 11.792C100.329 11.896 100.338 11.9914 100.347 12.078L98.9036 12.221C98.8083 11.961 98.6999 11.6057 98.5786 11.155C98.4659 10.6957 98.3663 10.193 98.2796 9.64704C98.2016 9.09237 98.1626 8.54637 98.1626 8.00904C98.1626 7.29837 98.1843 6.61371 98.2276 5.95504C98.2796 5.29637 98.3403 4.69837 98.4096 4.16104C98.4789 3.61504 98.5353 3.16871 98.5786 2.82204C98.6133 2.64004 98.6349 2.44937 98.6436 2.25004C98.6523 2.04204 98.6609 1.85571 98.6696 1.69104L100.594 1.88604Z" fill="#333333"/>
<path d="M86.0986 3.13419H95.8876V4.6682H87.6586V13.1572H86.0986V3.13419ZM95.3416 3.13419H96.9016V11.3632C96.9016 11.7792 96.8496 12.1085 96.7456 12.3512C96.6416 12.5939 96.451 12.7759 96.1736 12.8972C95.8963 13.0185 95.5496 13.0922 95.1336 13.1182C94.7176 13.1529 94.2106 13.1702 93.6126 13.1702C93.604 13.0229 93.5693 12.8539 93.5086 12.6632C93.4566 12.4725 93.3916 12.2819 93.3136 12.0912C93.2443 11.9005 93.175 11.7359 93.1056 11.5972C93.3656 11.6145 93.6213 11.6275 93.8726 11.6362C94.1326 11.6362 94.3666 11.6362 94.5746 11.6362C94.7826 11.6275 94.93 11.6232 95.0166 11.6232C95.138 11.6232 95.2203 11.6059 95.2636 11.5712C95.3156 11.5279 95.3416 11.4499 95.3416 11.3372V3.13419ZM90.3886 0.950195L92.3776 1.23619C92.1523 1.76486 91.9096 2.28053 91.6496 2.7832C91.3983 3.28586 91.1686 3.71053 90.9606 4.0572L89.4526 3.73219C89.574 3.46353 89.6953 3.16886 89.8166 2.84819C89.938 2.52753 90.0463 2.20253 90.1416 1.87319C90.2456 1.54386 90.328 1.2362 90.3886 0.950195ZM88.9196 5.9292H90.3366V11.2982H88.9196V5.9292ZM89.5306 5.9292H94.0286V10.3882H89.5306V9.0232H92.5986V7.2812H89.5306V5.9292Z" fill="#333333"/>
<path d="M78.4286 1.26221H80.2226C80.2053 1.62621 80.175 2.09421 80.1316 2.66621C80.0883 3.23821 80.006 3.87521 79.8846 4.57721C79.772 5.27054 79.5986 5.99854 79.3646 6.76121C79.1306 7.52387 78.81 8.28654 78.4026 9.04921C78.004 9.80321 77.4926 10.5269 76.8686 11.2202C76.2533 11.9049 75.5036 12.5159 74.6196 13.0532C74.481 12.8539 74.2903 12.6415 74.0476 12.4162C73.8136 12.1909 73.5666 11.9872 73.3066 11.8052C74.1733 11.3199 74.9013 10.7652 75.4906 10.1412C76.08 9.51721 76.561 8.86287 76.9336 8.17821C77.3063 7.48487 77.5923 6.79154 77.7916 6.09821C77.991 5.39621 78.134 4.73321 78.2206 4.10921C78.3073 3.48521 78.3593 2.92621 78.3766 2.43221C78.394 1.93821 78.4113 1.54821 78.4286 1.26221ZM80.1576 1.61321C80.1663 1.77787 80.1836 2.03787 80.2096 2.39321C80.2356 2.74854 80.2876 3.17321 80.3656 3.66721C80.4436 4.16121 80.5606 4.69854 80.7166 5.27921C80.8813 5.85121 81.098 6.44054 81.3666 7.04721C81.6353 7.65387 81.969 8.24754 82.3676 8.82821C82.7663 9.40887 83.2473 9.94621 83.8106 10.4402C84.3826 10.9342 85.05 11.3632 85.8126 11.7272C85.5613 11.9092 85.3273 12.1215 85.1106 12.3642C84.9026 12.6069 84.7336 12.8365 84.6036 13.0532C83.8063 12.6545 83.1086 12.1822 82.5106 11.6362C81.9213 11.0815 81.4143 10.4835 80.9896 9.84221C80.5736 9.19221 80.227 8.53354 79.9496 7.86621C79.6723 7.19887 79.447 6.54454 79.2736 5.90321C79.109 5.25321 78.9833 4.65087 78.8966 4.09621C78.81 3.54154 78.7493 3.06054 78.7146 2.65321C78.6886 2.24587 78.667 1.95121 78.6496 1.76921L80.1576 1.61321Z" fill="#333333"/>
<path d="M65.078 6.16319H73.515V7.6452H65.078V6.16319ZM65.728 2.8222H72.891V4.3172H65.728V2.8222ZM68.445 0.950195H70.057V7.2422H68.445V0.950195ZM65.091 11.0642C65.6717 11.0382 66.3433 11.0079 67.106 10.9732C67.8773 10.9385 68.692 10.8952 69.55 10.8432C70.4167 10.7912 71.279 10.7435 72.137 10.7002L72.124 12.1172C71.318 12.1779 70.5033 12.2429 69.68 12.3122C68.8653 12.3815 68.081 12.4422 67.327 12.4942C66.5817 12.5462 65.9013 12.5982 65.286 12.6502L65.091 11.0642ZM70.07 9.2702L71.409 8.55519C71.7383 8.93653 72.059 9.35253 72.371 9.80319C72.6917 10.2539 72.982 10.7002 73.242 11.1422C73.502 11.5842 73.697 11.9915 73.827 12.3642L72.345 13.1702C72.2323 12.8149 72.0547 12.4119 71.812 11.9612C71.5693 11.5105 71.2963 11.0512 70.993 10.5832C70.6897 10.1065 70.382 9.66886 70.07 9.2702ZM67.431 7.2162L69.173 7.6712C68.9823 8.16519 68.7743 8.6722 68.549 9.1922C68.3323 9.7122 68.1113 10.2062 67.886 10.6742C67.6693 11.1422 67.4613 11.5582 67.262 11.9222L65.871 11.4672C66.0097 11.1812 66.1527 10.8649 66.3 10.5182C66.4473 10.1629 66.5903 9.79453 66.729 9.4132C66.8763 9.03186 67.0063 8.65486 67.119 8.2822C67.2403 7.90086 67.3443 7.54553 67.431 7.2162ZM62.179 2.15919L63.037 1.0022C63.323 1.1062 63.622 1.23186 63.934 1.3792C64.246 1.52653 64.545 1.68253 64.831 1.8472C65.117 2.01186 65.351 2.1722 65.533 2.3282L64.623 3.6022C64.4497 3.4462 64.2243 3.28153 63.947 3.1082C63.6783 2.9262 63.388 2.75286 63.076 2.58819C62.764 2.41486 62.465 2.27186 62.179 2.15919ZM61.438 5.6952L62.244 4.5122C62.5213 4.60753 62.8203 4.72453 63.141 4.8632C63.4617 5.00186 63.765 5.14919 64.051 5.30519C64.3457 5.45253 64.584 5.59553 64.766 5.7342L63.908 7.0472C63.7347 6.89986 63.505 6.74386 63.219 6.5792C62.9417 6.41453 62.647 6.2542 62.335 6.0982C62.023 5.94219 61.724 5.80786 61.438 5.6952ZM61.789 11.9872C62.0143 11.6579 62.257 11.2679 62.517 10.8172C62.7857 10.3665 63.0543 9.88986 63.323 9.3872C63.6003 8.88453 63.8603 8.38186 64.103 7.8792L65.273 8.8802C65.065 9.33086 64.8397 9.79453 64.597 10.2712C64.363 10.7392 64.1203 11.2029 63.869 11.6622C63.6263 12.1215 63.3837 12.5635 63.141 12.9882L61.789 11.9872Z" fill="#333333"/>
<path d="M107.647 82.3258C106.427 82.3258 105.424 81.9734 104.638 81.2686C103.879 80.5366 103.5 79.6421 103.5 78.5849C103.5 77.5006 103.879 76.5925 104.638 75.8606C105.424 75.1287 106.427 74.7627 107.647 74.7627C108.84 74.7627 109.816 75.1287 110.575 75.8606C111.361 76.5925 111.754 77.5006 111.754 78.5849C111.754 79.6421 111.361 80.5366 110.575 81.2686C109.816 81.9734 108.84 82.3258 107.647 82.3258Z" fill="#FF8634"/>
<path d="M88.629 82.3256C86.4062 82.3256 84.4002 81.8512 82.6111 80.9025C80.8491 79.9537 79.453 78.5983 78.4229 76.8363C77.42 75.0743 76.9185 73.0141 76.9185 70.6557C76.9185 68.3245 77.4335 66.2778 78.4636 64.5158C79.4937 62.7267 80.9033 61.3578 82.6924 60.409C84.4815 59.4602 86.4875 58.9858 88.7103 58.9858C90.9332 58.9858 92.9391 59.4602 94.7283 60.409C96.5174 61.3578 97.927 62.7267 98.9571 64.5158C99.9872 66.2778 100.502 68.3245 100.502 70.6557C100.502 72.987 99.9736 75.0472 98.9164 76.8363C97.8863 78.5983 96.4631 79.9537 94.6469 80.9025C92.8578 81.8512 90.8518 82.3256 88.629 82.3256ZM88.629 76.3077C89.9573 76.3077 91.0823 75.8198 92.0039 74.8439C92.9527 73.868 93.4271 72.4719 93.4271 70.6557C93.4271 68.8395 92.9662 67.4435 92.0446 66.4676C91.15 65.4917 90.0386 65.0038 88.7103 65.0038C87.3549 65.0038 86.23 65.4917 85.3354 66.4676C84.4409 67.4164 83.9936 68.8124 83.9936 70.6557C83.9936 72.4719 84.4273 73.868 85.2948 74.8439C86.1893 75.8198 87.3007 76.3077 88.629 76.3077Z" fill="#FF8634"/>
<path d="M73.0575 82.0005H66.1043L54.4751 64.394V82.0005H47.522V53.4561H54.4751L66.1043 71.1439V53.4561H73.0575V82.0005Z" fill="#FF8634"/>
<path d="M113.353 58.7826V52.3174H124.616V82.0004H117.379V58.7826H113.353Z" fill="#FF8634"/>
<path d="M130.75 56.072L130.178 55.654L130.882 54.466L129.639 53.927L129.859 53.256L131.179 53.564L131.3 52.189H132.015L132.136 53.564L133.456 53.256L133.676 53.927L132.433 54.466L133.148 55.654L132.576 56.072L131.663 55.005L130.75 56.072Z" fill="#949799"/>
</svg>
